<svg xmlns="http://www.w3.org/2000/svg" xmlns:xlink="http://www.w3.org/1999/xlink" contentStyleType="text/css" height="193px" preserveAspectRatio="none" style="width:677px;height:193px;background:#FFFFFF;" version="1.1" viewBox="0 0 677 193" width="677px" zoomAndPan="magnify"><defs/><g><!--entity Visiteur--><g id="elem_Visiteur"><ellipse cx="327.6909" cy="14" fill="#F1F1F1" rx="8" ry="8" style="stroke:#181818;stroke-width:0.5;"/><path d="M327.6909,22 L327.6909,49 M314.6909,30 L340.6909,30 M327.6909,49 L314.6909,64 M327.6909,49 L340.6909,64 " fill="none" style="stroke:#181818;stroke-width:0.5;"/><text fill="#000000" font-family="sans-serif" font-size="14" lengthAdjust="spacing" textLength="53.3818" x="301" y="78.4951">Visiteur</text></g><g id="elem_ConsulterPortfolio"><ellipse cx="98.3622" cy="164.3724" fill="#F1F1F1" rx="92.3622" ry="20.8724" style="stroke:#181818;stroke-width:0.5;"/><text fill="#000000" font-family="sans-serif" font-size="14" lengthAdjust="spacing" textLength="147.0684" x="24.8281" y="167.2191">Consulter le portfolio</text></g><g id="elem_VoirProjet"><ellipse cx="327.5021" cy="164.6004" fill="#F1F1F1" rx="101.0021" ry="22.6004" style="stroke:#181818;stroke-width:0.5;"/><text fill="#000000" font-family="sans-serif" font-size="14" lengthAdjust="spacing" textLength="166.2637" x="244.3703" y="167.4471">Rediriger vers un projet</text></g><g id="elem_EnvoyerMessage"><ellipse cx="567.5394" cy="164.7079" fill="#F1F1F1" rx="104.0394" ry="23.2079" style="stroke:#181818;stroke-width:0.5;"/><text fill="#000000" font-family="sans-serif" font-size="14" lengthAdjust="spacing" textLength="172.9219" x="481.0784" y="167.5546">Contacter le propriétaire</text></g><!--link Visiteur to ConsulterPortfolio--><g id="link_Visiteur_ConsulterPortfolio"><path d="M300.78,58.38 C259.49,79.84 185.4438,118.3129 139.3638,142.2629 " fill="none" id="Visiteur-to-ConsulterPortfolio" style="stroke:#181818;stroke-width:1;"/><polygon fill="#181818" points="134.04,145.03,143.8705,144.4286,138.4765,142.7241,140.1811,137.3302,134.04,145.03" style="stroke:#181818;stroke-width:1;"/></g><!--link Visiteur to VoirProjet--><g id="link_Visiteur_VoirProjet"><path d="M327.5,81.5 C327.5,101.29 327.5,118.97 327.5,135.78 " fill="none" id="Visiteur-to-VoirProjet" style="stroke:#181818;stroke-width:1;"/><polygon fill="#181818" points="327.5,141.78,331.5,132.78,327.5,136.78,323.5,132.78,327.5,141.78" style="stroke:#181818;stroke-width:1;"/></g><!--link Visiteur to EnvoyerMessage--><g id="link_Visiteur_EnvoyerMessage"><path d="M354.1,57.69 C395.96,78.45 472.1345,116.2146 521.4045,140.6446 " fill="none" id="Visiteur-to-EnvoyerMessage" style="stroke:#181818;stroke-width:1;"/><polygon fill="#181818" points="526.78,143.31,520.4937,135.7283,522.3004,141.0889,516.9399,142.8956,526.78,143.31" style="stroke:#181818;stroke-width:1;"/></g><!--SRC=[ROv12W8n34NtFKNeVgxWHbmAWmltfSOXKfgIf0CUoNDuiP5ArOBB_tz-tW_HMC2VIScmYeUWq8LpLJ46HV1xpbgJeK12A2nsvKJShZ_HtErlxOGN4bfUjHL5eMOemZUqDuP9vYO7ZeNOES95wFcmG8AjSiWhtr6Eg1eMTAulXMdQ_Hiov3-ymH-VRW00]--></g></svg>